<svg xmlns="http://www.w3.org/2000/svg" width="613.971" height="117.381" viewBox="0 0 613.971 117.381">
  <g id="Group_1" data-name="Group 1" transform="translate(-95.44 -98.344)">
    <path id="Path_4" data-name="Path 4" d="M188.67,463.36s15.92-.836,25.419-10.854,11.858-19.632,12.577-29.219c1.607-21.4,62.043-13.115,62.043-13.115s26.282,3.023,46.406,11.1a113.918,113.918,0,0,1,32.628,19.8s-29.6.6-32.628,28.849c0,0-25.221-.731-24.212,20.958,0,0-24.717-8.07-27.743,16.646,0,0-24.212-12.106-31.778,10.088,0,0-21.152-9.584-37.294,0,0,0-17.853-13.62-25.419-10.088Z" transform="translate(341.667 -310.25)" fill="#9eae98"/>
    <text id="skedaddle" transform="translate(95.44 195.724)" fill="#9eae98" font-size="97" font-family="Tahoma"><tspan x="0" y="0">skedaddle</tspan></text>
  </g>
</svg>
